<?xml version="1.0" encoding="utf-8"?>
<!-- Generator: Adobe Illustrator 18.0.0, SVG Export Plug-In . SVG Version: 6.00 Build 0)  -->
<!DOCTYPE svg PUBLIC "-//W3C//DTD SVG 1.1//EN" "http://www.w3.org/Graphics/SVG/1.1/DTD/svg11.dtd">
<svg version="1.1" id="Layer_1" xmlns="http://www.w3.org/2000/svg" xmlns:xlink="http://www.w3.org/1999/xlink" x="0px" y="0px"
	 viewBox="0 0 460 280" enable-background="new 0 0 460 280" xml:space="preserve">
<path fill-rule="evenodd" clip-rule="evenodd" fill="#0FA085" d="M203,7c0,87.4,0,175.6,0,263.1c-0.9,0-99.1-0.3-145.9,0
	c-0.6-2.8-0.1-0.7-0.5-2.6C45.3,210,33.9,152.4,22.5,94.8c-4.4-22.1-8.7-44.3-13.1-66.4c-0.1-0.6,0,0-0.4-2.4
	C73.6,19.7,138.3,13.4,203,7z M27.5,39.8c14.2,71.9,28.2,143.2,42.2,214.1c39.6,0,78.7,0,117.8,0c0-76.8,0-153.1,0-229.8
	C134.1,29.4,81,34.6,27.5,39.8z"/>
<path fill-rule="evenodd" clip-rule="evenodd" fill="#0FA085" d="M62.2,146.4C56.7,117.1,51.2,88,45.5,58.2
	c21.7,1.4,54,3.3,75.2,5.1c53.4-2.4,0,0,53.4-2.4c0,1.1,0,42,0,61.6c0,2.1,0,0.6,0,2.9"/>
<g>
	<path fill="#0FA085" d="M258.6,174.9h-33.1v-13.8h4.4v-51.6h-4.4V95.8h25.5v32.9c0.3-0.5,0.9-1.2,2-2.1c1.1-0.9,2.3-1.8,3.8-2.8
		c1.5-0.9,3.2-1.8,5.1-2.5c1.9-0.7,3.7-1.1,5.6-1.1c4.1,0,7.3,0.7,9.8,2.1c2.4,1.4,4.3,3.2,5.6,5.4c1.3,2.2,2.1,4.7,2.5,7.5
		c0.4,2.8,0.6,5.5,0.6,8.3v17.6h5v13.8h-27.1v-28.7c0-0.9,0-1.9-0.1-3.1c-0.1-1.1-0.3-2.2-0.7-3.2c-0.4-1-1-1.8-1.8-2.5
		c-0.8-0.7-2-1.1-3.6-1.1c-1.3,0-2.4,0.3-3.3,0.9c-0.9,0.6-1.6,1.4-2.1,2.3c-0.5,0.9-0.8,2-1,3.2c-0.2,1.2-0.3,2.3-0.3,3.4v14.9h7.6
		V174.9z"/>
	<path fill="#0FA085" d="M300.6,126.6c1.1-0.6,2.4-1.4,4-2.2c1.6-0.8,3.4-1.7,5.4-2.5c2-0.8,4.1-1.5,6.4-2c2.3-0.5,4.7-0.8,7.1-0.8
		c3.2,0,6.4,0.3,9.8,1c3.4,0.7,6.4,1.8,9.2,3.5c2.8,1.7,5.1,3.9,6.9,6.7c1.8,2.8,2.7,6.3,2.7,10.5v20.6h6.3v13.5h-22.6l-2.5-4.7
		c-1,1.3-2.1,2.4-3.3,3.3c-1.2,0.9-2.5,1.6-3.8,2.1c-1.3,0.5-2.6,0.8-3.8,1.1c-1.3,0.2-2.4,0.3-3.3,0.3c-2.5,0-5-0.4-7.5-1.1
		c-2.5-0.7-4.7-1.8-6.6-3.2c-2-1.4-3.6-3.2-4.8-5.4c-1.2-2.2-1.8-4.9-1.8-8c0-3,0.6-5.6,1.7-8c1.2-2.4,2.7-4.4,4.7-6.1
		c2-1.7,4.3-3,7-3.9c2.7-0.9,5.5-1.4,8.4-1.4c1.5,0,2.9,0.2,4.2,0.5c1.2,0.3,2.3,0.7,3.2,1.1c0.9,0.4,1.6,0.8,2.1,1.3
		c0.5,0.4,0.9,0.7,1,0.8v-3.7c0-2.4-0.9-4-2.8-4.7c-1.9-0.8-4.3-1.2-7.2-1.2c-3.2,0-6.1,0.5-8.7,1.6c-2.6,1.1-5,2.1-7,3.3
		L300.6,126.6z M324,163.2c1.6,0,3-0.4,4.2-1.2c1.2-0.8,2-1.5,2.5-2.3v-4c-0.1-0.1-0.2-0.4-0.5-0.7c-0.2-0.3-0.6-0.6-1.1-1
		c-0.5-0.4-1.1-0.7-1.8-0.9c-0.7-0.3-1.7-0.4-2.8-0.4c-2.1,0-3.7,0.5-4.6,1.6c-1,1.1-1.5,2.4-1.5,4c0,1.5,0.5,2.7,1.6,3.6
		C321.1,162.8,322.4,163.2,324,163.2z"/>
	<path fill="#0FA085" d="M397.7,174.9h-30.8v-13.8h4.5v-51.7h-4.4V95.8h24.5v65.3h6.2V174.9z"/>
	<path fill="#0FA085" d="M440.5,108.7c-0.6-0.3-1.3-0.5-2.3-0.7c-0.9-0.2-2.1-0.3-3.5-0.3c-2.3,0-3.4,1.9-3.4,5.6v9h9.6v13.7h-9.6
		v25.2h6.3v13.8h-31.4v-13.8h4.2v-25.2h-4.3v-13.7h4.3v-9c0-1.5,0.2-3.3,0.6-5.5c0.4-2.2,1.3-4.3,2.7-6.4c1.4-2,3.5-3.8,6.3-5.2
		c2.7-1.4,6.5-2.2,11.3-2.2c1.3,0,2.8,0.1,4.3,0.2c1.5,0.1,3,0.3,4.4,0.6c1.4,0.2,2.7,0.5,3.9,0.8c1.2,0.3,2.1,0.7,2.8,1
		L440.5,108.7z"/>
	<path fill="#0FA085" d="M259.9,203.9c-0.6-0.3-1.3-0.5-2.3-0.7c-0.9-0.2-2.1-0.3-3.5-0.3c-2.3,0-3.4,1.9-3.4,5.6v9h9.6v13.7h-9.6
		v25.2h6.3v13.8h-31.4v-13.8h4.2v-25.2h-4.3v-13.7h4.3v-9c0-1.5,0.2-3.3,0.6-5.5c0.4-2.2,1.3-4.3,2.7-6.4c1.4-2,3.5-3.8,6.3-5.2
		c2.7-1.4,6.5-2.2,11.3-2.2c1.3,0,2.8,0.1,4.3,0.2c1.5,0.1,3,0.3,4.4,0.6c1.4,0.2,2.7,0.5,3.9,0.8c1.2,0.3,2.1,0.7,2.8,1
		L259.9,203.9z"/>
	<path fill="#0FA085" d="M269.4,217.4h25.5v25.4c0,4.6,0.4,7.9,1.2,10.1c0.8,2.1,2.3,3.2,4.5,3.2c1.8,0,3.4-0.7,4.7-2.2
		c1.3-1.5,2-3.4,2-5.8v-16.8h-7v-13.9h27.3v38.7h5.2v14h-19.9l-2.8-6.6c-0.6,0.6-1.2,1.4-2.1,2.4c-0.8,1-1.8,1.8-3,2.7
		c-1.2,0.8-2.5,1.6-4.2,2.2c-1.6,0.6-3.6,0.9-5.8,0.9c-4,0-7.4-0.5-10.1-1.6c-2.7-1.1-4.9-2.6-6.5-4.7c-1.7-2.1-2.8-4.8-3.5-8
		c-0.7-3.2-1.1-7-1.1-11.4v-14.6h-4.4V217.4z"/>
	<path fill="#0FA085" d="M372,270.1h-30.8v-13.8h4.5v-51.7h-4.4V191h24.5v65.3h6.2V270.1z"/>
	<path fill="#0FA085" d="M411.2,270.1h-30.8v-13.8h4.5v-51.7h-4.4V191H405v65.3h6.2V270.1z"/>
	<path fill="#0FA085" d="M418.6,259.2c0-1.3,0.3-2.7,0.8-4.2c0.5-1.4,1.3-2.7,2.3-3.9c1-1.2,2.2-2.1,3.7-2.8
		c1.5-0.7,3.2-1.1,5.1-1.1c1.9,0,3.6,0.4,5.1,1.1c1.5,0.7,2.8,1.7,3.8,2.8c1.1,1.2,1.8,2.5,2.4,3.9c0.5,1.4,0.8,2.8,0.8,4.2
		c0,3.2-1,5.9-3.1,8.1c-2,2.2-5.1,3.3-9.1,3.3c-1.8,0-3.4-0.3-4.8-1c-1.4-0.7-2.7-1.5-3.7-2.6c-1.1-1.1-1.9-2.3-2.5-3.6
		C418.9,262,418.6,260.6,418.6,259.2z"/>
</g>
<path fill-rule="evenodd" clip-rule="evenodd" fill="#0FA085" d="M173.9,62.1"/>
<path fill="#0FA085" stroke="#231F20" stroke-width="0.8248" stroke-miterlimit="10" d="M173.9,125.5"/>
<path fill="#0FA085" stroke="#231F20" stroke-width="0.8248" stroke-miterlimit="10" d="M174.1,122.5"/>
</svg>
